<?xml version="1.0" encoding="UTF-8" standalone="no"?>
<svg
   xmlns:dc="http://purl.org/dc/elements/1.1/"
   xmlns:cc="http://creativecommons.org/ns#"
   xmlns:rdf="http://www.w3.org/1999/02/22-rdf-syntax-ns#"
   xmlns:svg="http://www.w3.org/2000/svg"
   xmlns="http://www.w3.org/2000/svg"
   xmlns:sodipodi="http://sodipodi.sourceforge.net/DTD/sodipodi-0.dtd"
   xmlns:inkscape="http://www.inkscape.org/namespaces/inkscape"
   inkscape:version="1.0 (4035a4fb49, 2020-05-01)"
   sodipodi:docname="logo_novo.svg"
   viewBox="0 0 394.66666 457.33334"
   height="457.33334"
   width="394.66666"
   id="svg62"
   version="1.1">
  <metadata
     id="metadata68">
    <rdf:RDF>
      <cc:Work
         rdf:about="">
        <dc:format>image/svg+xml</dc:format>
        <dc:type
           rdf:resource="http://purl.org/dc/dcmitype/StillImage" />
        <dc:title></dc:title>
      </cc:Work>
    </rdf:RDF>
  </metadata>
  <defs
     id="defs66" />
  <sodipodi:namedview
     inkscape:current-layer="g70"
     inkscape:window-maximized="1"
     inkscape:window-y="793"
     inkscape:window-x="0"
     inkscape:cy="228.66667"
     inkscape:cx="197.33333"
     inkscape:zoom="1.2004373"
     showgrid="false"
     id="namedview64"
     inkscape:window-height="743"
     inkscape:window-width="1366"
     inkscape:pageshadow="2"
     inkscape:pageopacity="0"
     guidetolerance="10"
     gridtolerance="10"
     objecttolerance="10"
     borderopacity="1"
     bordercolor="#666666"
     pagecolor="#ffffff" />
  <g
     id="g70"
     inkscape:label="Image"
     inkscape:groupmode="layer">
    <path
       id="path74"
       d="m 63.579722,440.22543 c -14.71715,-4.14337 -25.32445,-13.2532 -32.5036,-27.91493 -5.38399,-10.99555 -6.61244,-30.46408 -5.80772,-92.04114 0.76934,-58.86915 0.97088,-60.10273 11.74598,-71.8924 15.00785,-16.42099 42.94505,-23.31856 68.242028,-16.84869 17.45756,4.46489 29.44617,12.47969 38.13891,25.49718 6.57511,9.8463 9.02531,17.68726 10.73619,34.35722 0.70259,6.84565 2.03267,13.35664 2.95573,14.46886 0.92306,1.11222 6.69948,5.32894 12.83651,9.37048 18.63288,12.27071 24.29031,23.83413 24.29031,49.64782 0,15.70771 -1.32932,18.73287 -8.23167,18.73287 -6.10955,0 -7.76833,-3.60078 -7.76833,-16.86299 0,-14.19696 -2.6331,-24.23177 -7.90714,-30.13446 -2.07412,-2.32133 -8.76189,-7.54654 -14.86172,-11.61158 -13.618,-9.07527 -15.46698,-12.3159 -17.20634,-30.1567 -1.59168,-16.32597 -2.88048,-20.84113 -8.14252,-28.52649 -9.39236,-13.71783 -23.19332,-20.39428 -42.548948,-20.58377 -21.30278,-0.20856 -36.04864,6.61326 -42.53527,19.67794 -3.16333,6.37126 -3.20923,7.03035 -3.80656,54.65687 -0.68589,54.68831 0.57664,77.54782 4.72808,85.60699 5.47842,10.63523 14.42469,16.755 28.12541,19.23941 15.40926,2.79423 33.009548,-0.82448 76.155008,-15.65789 29.28868,-10.06944 30.30033,-10.31308 42.66666,-10.27536 12.23092,0.0373 13.26295,0.2846 30,7.18823 46.64416,19.23958 53.96807,21.19774 70.33369,18.80477 27.55595,-4.02921 46.8277,-21.60624 48.63464,-44.35781 0.81247,-10.22992 -1.0454,-17.5395 -6.30257,-24.79682 -8.84815,-12.21452 -21.80608,-18.12019 -45.98499,-20.95799 -19.81723,-2.32589 -29.35262,-4.76609 -41.34743,-10.58121 -12.39708,-6.01013 -21.83727,-14.56131 -27.21612,-24.65308 -18.79606,-35.265 9.35625,-73.3514 54.21913,-73.3514 13.85474,0 27.72456,3.21639 46.47798,10.77817 23.4199,9.44343 27.19748,8.88104 27.16984,-4.04484 -0.0223,-10.39654 -1.76282,-15.97134 -17.92172,-57.4 C 297.68636,90.337864 288.01376,68.165037 275.27775,47.998991 c -8.936,-14.149153 -15.59441,-17.037632 -23.6498,-10.259479 -6.45751,5.433639 -13.54983,18.674761 -28.13647,52.529853 -25.49293,59.168205 -37.69716,80.401555 -57.92294,100.776405 -9.77492,9.84698 -14.13884,13.15282 -23.35448,17.69195 -25.49256,12.55629 -48.367628,12.15265 -75.922578,-1.33967 -16.07084,-7.86912 -28.23106,-20.24929 -36.55741,-37.21868 -3.39404,-6.91717 -7.14346,-16.17668 -8.33205,-20.57668 -2.93242,-10.85549 -3.93895,-38.26622 -1.87687,-51.112893 8.79076,-54.766241 49.12431,-91.274214 93.089488,-84.260104 13.52756,2.158159 27.88179,7.806842 40.59942,15.97671 9.66656,6.209849 10.33333,6.940272 10.33333,11.319836 0,3.585171 -0.82199,5.220239 -3.50965,6.981267 -3.3809,2.215241 -3.71111,2.184637 -9,-0.834104 C 125.14476,32.894484 117.25113,30.083687 101.54739,30.050668 72.260512,29.989088 48.850762,51.924172 37.972762,89.620484 c -4.10435,14.223086 -4.41455,44.831516 -0.58087,57.315546 6.44406,20.98444 21.04385,38.89082 38.39329,47.08868 37.691678,17.80985 69.843648,4.54078 99.093008,-40.89554 7.25628,-11.272 20.74027,-38.8789 32.65621,-66.859805 23.02799,-54.074149 34.77156,-69.091973 52.9168,-67.670665 21.3264,1.670485 39.79767,33.919063 83.43692,145.67066 18.97988,48.60377 21.51781,57.37119 20.78845,71.81469 -0.56281,11.14522 -2.61836,15.15626 -10.58512,20.65502 -6.97444,4.81386 -18.94601,3.4302 -37.8774,-4.37783 -8.06666,-3.327 -19.10432,-7.03845 -24.5281,-8.24767 -20.76437,-4.62932 -41.44284,0.32127 -52.14988,12.4851 -6.50212,7.38681 -8.44181,13.17044 -7.72777,23.04208 1.51712,20.97382 22.12954,35.06866 56.52586,38.65257 26.42279,2.75311 40.55995,8.12703 53.44976,20.31768 10.3136,9.75416 15.42431,20.7903 16.16527,34.90747 0.99408,18.93972 -4.97027,33.77924 -18.98595,47.2378 -14.50681,13.93016 -31.66184,20.58 -53.41585,20.70572 -16.04813,0.0928 -25.66959,-2.60913 -59.93024,-16.82951 -32.00792,-13.28534 -30.99721,-13.27894 -68.73643,-0.43494 -16.5,5.61554 -36,11.70733 -43.33333,13.5373 -17.237598,4.30151 -39.579788,5.41514 -49.967668,2.49059 z"
       style="fill:#000000;stroke-width:1.33333" />
  </g>
</svg>
